<?xml version="1.0" encoding="iso-8859-1"?>
<!-- Generator: Adobe Illustrator 19.0.0, SVG Export Plug-In . SVG Version: 6.00 Build 0)  -->
<svg version="1.1" id="Layer_1" xmlns="http://www.w3.org/2000/svg" xmlns:xlink="http://www.w3.org/1999/xlink" x="0px" y="0px"
	 viewBox="0 0 490.613 490.613" style="enable-background:new 0 0 490.613 490.613;" xml:space="preserve">
<g>
	<g>
		<g>
			<path d="M487.573,237.84L334.507,83.173c-2.027-2.027-4.693-3.2-7.573-3.2H10.667C4.8,79.973,0,84.773,0,90.64v309.333
				c0,5.867,4.8,10.667,10.667,10.667h316.267c2.88,0,5.547-1.173,7.573-3.2l153.067-154.667
				C491.627,248.613,491.627,242,487.573,237.84z M322.453,389.307H21.333v-288H322.56l142.507,144L322.453,389.307z"/>
			<path d="M242.24,168.507c-4.16-4.16-10.88-4.16-15.04,0l-61.867,61.76l-61.76-61.76c-4.267-4.053-10.987-3.947-15.04,0.213
				c-3.947,4.16-3.947,10.667,0,14.827l61.76,61.76l-61.867,61.867c-4.267,4.053-4.373,10.88-0.213,15.04
				c4.16,4.16,10.88,4.373,15.04,0.213c0.107-0.107,0.213-0.213,0.213-0.213l61.76-61.76l61.76,61.76
				c4.267,4.053,10.987,3.947,15.04-0.213c3.947-4.16,3.947-10.667,0-14.827l-61.547-61.867l61.76-61.76
				C246.4,179.387,246.4,172.667,242.24,168.507z"/>
		</g>
	</g>
</g>
<g>
</g>
<g>
</g>
<g>
</g>
<g>
</g>
<g>
</g>
<g>
</g>
<g>
</g>
<g>
</g>
<g>
</g>
<g>
</g>
<g>
</g>
<g>
</g>
<g>
</g>
<g>
</g>
<g>
</g>
</svg>
